<svg id="Warstwa_1" data-name="Warstwa 1" xmlns="http://www.w3.org/2000/svg" viewBox="0 0 1163.91 396.74"><defs><style>.cls-1{fill:#fff;}</style></defs><title>Obszar roboczy 1</title><path class="cls-1" d="M1082,158.39v-.65H659.43l-13.06-17v17H310.91v-55.2c10.34,9.53,31.89,16.09,56.8,16.09,35,0,63.34-12.92,63.34-28.87S402.69,60.9,367.71,60.9s-63.33,12.92-63.33,28.86c0,.18,0,.35,0,.52v67.46H82.16v.65H304.41v25.38H265.49v-3.06a49.67,49.67,0,0,0-17.22,3.06H82.16v.65H246.62a50.21,50.21,0,0,0-26.45,25.39h-138v.65H219.87a49.66,49.66,0,0,0-4.24,20.11,48.88,48.88,0,0,0,.28,5.28H82.16v.65H216a50,50,0,0,0,10.7,25.39H82.16v.65H227.25a49.31,49.31,0,0,0,4.91,5.11l78.75,70.74V262.54H413.62V288h6.51V262.54h82.28c0,.64-.05,1.28-.05,1.93a41.41,41.41,0,0,0,77.54,20.24V306.2h6.51V262.54H811.93a45.54,45.54,0,0,0,74.79,0H1082v-.65H887.18a45.39,45.39,0,0,0,7.75-25.39H1082v-.65H894.91a45.36,45.36,0,0,0-8.17-25.39H1082v-.65H886.28a45.54,45.54,0,0,0-73.91,0H718.59V184.42H1082v-.65H718.59V158.39Zm-771.08,0H646.37v25.38H310.91Zm400.18,77.46H586.41V221.71H579.9v14.14h-6.2a41.38,41.38,0,0,0-59.85,0H420.13V210.46H691.64Zm-11.26-25.39h12.26v16Zm-119.93,26v7.72a41.36,41.36,0,0,0-5.58-7.72ZM420.13,209.81V184.44h-6.51v25.37H310.91V184.42H646.37v25.39Zm-6.51.65v25.39H310.91V210.46Zm239.26-.65V184.42h18.8l19.46,25.39Zm0-26V159.89l18.3,23.88Zm-387.39,3.44v-2.79h38.92v25.39h-77A43.41,43.41,0,0,1,265.49,187.21Zm-43.36,43.36a43.15,43.15,0,0,1,5-20.11h77.32v25.39H222.47A42.17,42.17,0,0,1,222.13,230.57Zm.43,5.93h81.85v25.39H235.53A43.43,43.43,0,0,1,222.56,236.5Zm81.85,87.3-67.9-61-.29-.28h68.19Zm6.5-61.91V236.5H413.62v25.39Zm109.22,0V236.5h93.1a41.25,41.25,0,0,0-10.78,25.39Zm166.28,0V236.5H711.59l7,9.14V236.5h85.13a45.31,45.31,0,0,0,7.75,25.39Zm262.91,13.7a39,39,0,0,1-29.12-13h58.24A39,39,0,0,1,849.32,275.59ZM879,261.89H819.64a38.87,38.87,0,0,1-9.41-25.39h78.19A38.87,38.87,0,0,1,879,261.89Zm9.4-26H810.24a39,39,0,0,1,9.94-25.39h58.29A39,39,0,0,1,888.41,235.85Zm-39.09-38.46a39,39,0,0,1,28.55,12.42H820.78A39,39,0,0,1,849.32,197.39Zm-37.41,13.07a45.36,45.36,0,0,0-8.17,25.39H718.59V210.46Zm-99.82-.65H699.34l-19.46-25.39h32.21Zm0-26H679.38l-19.45-25.38h52.16Z"/><path class="cls-1" d="M915,125.23V94.36h-3.18V124.5c0,9.93-3.24,12.52-8.94,12.52a12.43,12.43,0,0,1-4.7-.86l-.67,2.51a14.62,14.62,0,0,0,5.44,1.06C909.32,139.73,915,136.62,915,125.23Z"/><path class="cls-1" d="M951.71,127.41c0-6.69-3.9-10-11.26-13-6.42-2.51-9.27-5-9.27-10,0-3.51,2.45-8.15,9.67-8.15a14.25,14.25,0,0,1,7.88,2.12l1.2-2.65c-1.53-1.06-4.71-2.12-8.88-2.12-7.62,0-13,4.77-13,11.33,0,6.09,4.3,9.8,11.46,12.32,6.49,2.52,9.07,5.43,9.07,10.47,0,5.49-4.11,9.27-10.8,9.27a17.55,17.55,0,0,1-9.73-2.92l-1.19,2.59c2.31,1.78,6.82,3,10.66,3C947.08,139.73,951.71,133.9,951.71,127.41Z"/></svg>